<svg xmlns="http://www.w3.org/2000/svg" viewBox="0 0 1800 1080" preserveAspectRatio="xMidYMid slice">
  <defs>
    <radialGradient id="sky" cx="49%" cy="51%" r="72%">
      <stop offset="0" stop-color="#123049"/>
      <stop offset="0.42" stop-color="#071724"/>
      <stop offset="1" stop-color="#02070d"/>
    </radialGradient>
    <radialGradient id="milk" cx="45%" cy="55%" r="68%" gradientTransform="rotate(-23 .5 .5)">
      <stop offset="0" stop-color="#8eb6d6" stop-opacity=".18"/>
      <stop offset=".34" stop-color="#375c7b" stop-opacity=".1"/>
      <stop offset="1" stop-color="#000000" stop-opacity="0"/>
    </radialGradient>
    <filter id="softNoise">
      <feTurbulence type="fractalNoise" baseFrequency=".85" numOctaves="3" seed="11"/>
      <feColorMatrix type="matrix" values="0 0 0 0 0.8 0 0 0 0 0.72 0 0 0 0 0.58 0 0 0 .18 0"/>
    </filter>
    <g id="star-gold">
      <path d="M0-14 2.2-2.2 14 0 2.2 2.2 0 14-2.2 2.2-14 0-2.2-2.2Z" fill="#e6b56d"/>
      <circle r="2.2" fill="#fff3c8"/>
    </g>
    <g id="star-blue">
      <path d="M0-10 1.6-1.6 10 0 1.6 1.6 0 10-1.6 1.6-10 0-1.6-1.6Z" fill="#b7dcff"/>
      <circle r="1.9" fill="#f1f8ff"/>
    </g>
  </defs>
  <rect width="1800" height="1080" fill="url(#sky)"/>
  <rect width="1800" height="1080" fill="url(#milk)" opacity=".9"/>
  <rect width="1800" height="1080" filter="url(#softNoise)" opacity=".55"/>
  <g fill="#d7eaff" opacity=".52">
    <circle cx="124" cy="98" r="1.5"/><circle cx="212" cy="236" r="1.2"/><circle cx="344" cy="86" r="1.1"/>
    <circle cx="492" cy="168" r="1.4"/><circle cx="642" cy="92" r="1.2"/><circle cx="780" cy="218" r="1"/>
    <circle cx="954" cy="92" r="1.2"/><circle cx="1122" cy="188" r="1.3"/><circle cx="1286" cy="86" r="1.2"/>
    <circle cx="1452" cy="218" r="1"/><circle cx="1618" cy="108" r="1.5"/><circle cx="1732" cy="272" r="1.1"/>
    <circle cx="148" cy="482" r="1"/><circle cx="318" cy="628" r="1.3"/><circle cx="510" cy="514" r="1.1"/>
    <circle cx="708" cy="702" r="1.5"/><circle cx="924" cy="628" r="1"/><circle cx="1134" cy="744" r="1.3"/>
    <circle cx="1342" cy="566" r="1.1"/><circle cx="1538" cy="726" r="1.2"/><circle cx="1710" cy="612" r="1"/>
    <circle cx="222" cy="906" r="1.1"/><circle cx="426" cy="946" r="1.3"/><circle cx="686" cy="904" r="1"/>
    <circle cx="886" cy="980" r="1.4"/><circle cx="1098" cy="924" r="1.1"/><circle cx="1306" cy="978" r="1.2"/>
    <circle cx="1548" cy="894" r="1.1"/><circle cx="1706" cy="976" r="1.4"/>
  </g>
  <g fill="none" stroke="#c79054" stroke-opacity=".28" stroke-width="1">
    <circle cx="900" cy="540" r="90"/><circle cx="900" cy="540" r="116"/><circle cx="900" cy="540" r="142"/>
    <circle cx="900" cy="540" r="186"/><circle cx="900" cy="540" r="254"/><circle cx="900" cy="540" r="332"/>
    <circle cx="900" cy="540" r="420"/><circle cx="900" cy="540" r="520"/><circle cx="900" cy="540" r="640"/>
    <circle cx="900" cy="540" r="780"/>
    <path d="M0 540h1800M900 0v1080M264 0l1272 1080M1536 0 264 1080" opacity=".55"/>
  </g>
  <g fill="none" stroke="#c79054" stroke-opacity=".19" stroke-width="1" stroke-dasharray="3 8">
    <circle cx="900" cy="540" r="300"/><circle cx="900" cy="540" r="388"/><circle cx="900" cy="540" r="586"/>
  </g>
  <g opacity=".72">
    <use href="#star-gold" x="900" y="326"/><use href="#star-gold" x="900" y="754"/>
    <use href="#star-gold" x="686" y="540"/><use href="#star-gold" x="1114" y="540"/>
    <use href="#star-blue" x="424" y="304"/><use href="#star-blue" x="1378" y="780"/>
    <use href="#star-gold" x="1538" y="540"/><use href="#star-gold" x="264" y="540"/>
  </g>
</svg>
